PathFileType	4	(X/Y/Z)	C:\Users\Willi\Documents\Github\OpenSimMatlabBasic\ExampleData\Trials\dynamic03\marker_experimental.trc
DataRate	CameraRate	NumFrames	NumMarkers	Units	OrigDataRate	OrigDataStartFrame	OrigNumFrames
150.000000	150.000000	2	179	mm	150.000000	70	189
Frame#	Time	LFHD			LBHD			RFHD			RBHD			C7			T10			CLAV			STRN			RBAK			LSHO			LUPA			LELB			LFRA			LWRB			LWRA			LFIN			RSHO			RUPA			RELB			RFRA			RWRB			RWRA			RFIN			SACR			LASI			RASI			LT1			LT2			LT3			LS1			LS2			LS3			LTOE			RT1			RT2			RT3			RS1			RS2			RS3			RHEE			RTOE			SACO			SACA			SACL			SACP			LHEE			RM5D			LM5D			LKNE			RKNE			LANK			RANK			LKJC			RKJC			LAJC			RAJC			LTHI			RTHI			LTIB			RTIB			P_ForcePlate1			P_ForcePlate2			P_ForcePlate3			funktRKJC			funktLKJC			funktRHIP			funktLHIP			LHJC			RHJC			LKNEshank			RKNEshank			LKJCshank			RKJCshank			LHF			COP_FP1			VECTIP_FP1			RawCentreFP1			COP_FP2			VECTIP_FP2			RawCentreFP2			COP_FP3			VECTIP_FP3			RawCentreFP3			LPelvisAngles			RPelvisAngles			LFootProgressAngles			RFootProgressAngles			LHipAngles			RHipAngles			LKneeAngles			RKneeAngles			LAnkleAngles			RAnkleAngles			LFFootAngles			RFFootAngles			LAbsAnkleAngle			RAbsAnkleAngle			RNeckAngles			LNeckAngles			RSpineAngles			LSpineAngles			LShoulderAngles			LElbowAngles			LWristAngles			RShoulderAngles			RElbowAngles			RWristAngles			RThoraxAngles			LThoraxAngles			RHeadAngles			LHeadAngles			LHipPower			LKneePower			LAnklePower			RHipPower			RKneePower			RAnklePower			LWaistPower			RWaistPower			LNeckPower			RNeckPower			LShoulderPower			RShoulderPower			LElbowPower			RElbowPower			LWristPower			RWristPower			F_ForcePlate1			F_ForcePlate2			F_ForcePlate3			LHipForce			RHipForce			LKneeForce			RKneeForce			LAnkleForce			RAnkleForce			LNormalisedGRF			RNormalisedGRF			LGroundReactionForce			RGroundReactionForce			LGRF			RGRF			LWaistForce			RWaistForce			LNeckForce			RNeckForce			LShoulderForce			RShoulderForce			LElbowForce			RElbowForce			LWristForce			RWristForce			Force_FP1			RawForceFP1			Force_FP2			RawForceFP2			Force_FP3			RawForceFP3			LHipMoment			RHipMoment			LKneeMoment			RKneeMoment			LAnkleMoment			RAnkleMoment			LGroundReactionMoment			RGroundReactionMoment			LWaistMoment			RWaistMoment			LNeckMoment			RNeckMoment			LShoulderMoment			RShoulderMoment			LElbowMoment			RElbowMoment			LWristMoment			RWristMoment			RawMomentFP1			RawMomentFP2			RawMomentFP3			
		X1	Y1	Z1	X2	Y2	Z2	X3	Y3	Z3	X4	Y4	Z4	X5	Y5	Z5	X6	Y6	Z6	X7	Y7	Z7	X8	Y8	Z8	X9	Y9	Z9	X10	Y10	Z10	X11	Y11	Z11	X12	Y12	Z12	X13	Y13	Z13	X14	Y14	Z14	X15	Y15	Z15	X16	Y16	Z16	X17	Y17	Z17	X18	Y18	Z18	X19	Y19	Z19	X20	Y20	Z20	X21	Y21	Z21	X22	Y22	Z22	X23	Y23	Z23	X24	Y24	Z24	X25	Y25	Z25	X26	Y26	Z26	X27	Y27	Z27	X28	Y28	Z28	X29	Y29	Z29	X30	Y30	Z30	X31	Y31	Z31	X32	Y32	Z32	X33	Y33	Z33	X34	Y34	Z34	X35	Y35	Z35	X36	Y36	Z36	X37	Y37	Z37	X38	Y38	Z38	X39	Y39	Z39	X40	Y40	Z40	X41	Y41	Z41	X42	Y42	Z42	X43	Y43	Z43	X44	Y44	Z44	X45	Y45	Z45	X46	Y46	Z46	X47	Y47	Z47	X48	Y48	Z48	X49	Y49	Z49	X50	Y50	Z50	X51	Y51	Z51	X52	Y52	Z52	X53	Y53	Z53	X54	Y54	Z54	X55	Y55	Z55	X56	Y56	Z56	X57	Y57	Z57	X58	Y58	Z58	X59	Y59	Z59	X60	Y60	Z60	X61	Y61	Z61	X62	Y62	Z62	X63	Y63	Z63	X64	Y64	Z64	X65	Y65	Z65	X66	Y66	Z66	X67	Y67	Z67	X68	Y68	Z68	X69	Y69	Z69	X70	Y70	Z70	X71	Y71	Z71	X72	Y72	Z72	X73	Y73	Z73	X74	Y74	Z74	X75	Y75	Z75	X76	Y76	Z76	X77	Y77	Z77	X78	Y78	Z78	X79	Y79	Z79	X80	Y80	Z80	X81	Y81	Z81	X82	Y82	Z82	X83	Y83	Z83	X84	Y84	Z84	X85	Y85	Z85	X86	Y86	Z86	X87	Y87	Z87	X88	Y88	Z88	X89	Y89	Z89	X90	Y90	Z90	X91	Y91	Z91	X92	Y92	Z92	X93	Y93	Z93	X94	Y94	Z94	X95	Y95	Z95	X96	Y96	Z96	X97	Y97	Z97	X98	Y98	Z98	X99	Y99	Z99	X100	Y100	Z100	X101	Y101	Z101	X102	Y102	Z102	X103	Y103	Z103	X104	Y104	Z104	X105	Y105	Z105	X106	Y106	Z106	X107	Y107	Z107	X108	Y108	Z108	X109	Y109	Z109	X110	Y110	Z110	X111	Y111	Z111	X112	Y112	Z112	X113	Y113	Z113	X114	Y114	Z114	X115	Y115	Z115	X116	Y116	Z116	X117	Y117	Z117	X118	Y118	Z118	X119	Y119	Z119	X120	Y120	Z120	X121	Y121	Z121	X122	Y122	Z122	X123	Y123	Z123	X124	Y124	Z124	X125	Y125	Z125	X126	Y126	Z126	X127	Y127	Z127	X128	Y128	Z128	X129	Y129	Z129	X130	Y130	Z130	X131	Y131	Z131	X132	Y132	Z132	X133	Y133	Z133	X134	Y134	Z134	X135	Y135	Z135	X136	Y136	Z136	X137	Y137	Z137	X138	Y138	Z138	X139	Y139	Z139	X140	Y140	Z140	X141	Y141	Z141	X142	Y142	Z142	X143	Y143	Z143	X144	Y144	Z144	X145	Y145	Z145	X146	Y146	Z146	X147	Y147	Z147	X148	Y148	Z148	X149	Y149	Z149	X150	Y150	Z150	X151	Y151	Z151	X152	Y152	Z152	X153	Y153	Z153	X154	Y154	Z154	X155	Y155	Z155	X156	Y156	Z156	X157	Y157	Z157	X158	Y158	Z158	X159	Y159	Z159	X160	Y160	Z160	X161	Y161	Z161	X162	Y162	Z162	X163	Y163	Z163	X164	Y164	Z164	X165	Y165	Z165	X166	Y166	Z166	X167	Y167	Z167	X168	Y168	Z168	X169	Y169	Z169	X170	Y170	Z170	X171	Y171	Z171	X172	Y172	Z172	X173	Y173	Z173	X174	Y174	Z174	X175	Y175	Z175	X176	Y176	Z176	X177	Y177	Z177	X178	Y178	Z178	X179	Y179	Z179	

71	0.4666666666666667	-106.3959426879883	1232.529663085938	-347.9505004882812	-226.9118194580078	1274.50634765625	-377.0770263671874	-102.5663833618164	1244.321533203125	-234.7721557617187	-225.7237854003906	1303.78662109375	-212.5609588623046	-324.4656372070312	1146.275146484375	-274.0504150390624	-359.1268005371094	993.9439086914062	-269.6713256835937	-217.73876953125	1096.858764648438	-293.0609436035156	-190.3998260498047	1044.621704101562	-297.8976440429687	-345.2360229492188	1068.71923828125	-185.1609344482421	-309.5142211914062	1117.3369140625	-413.9199523925781	-386.321533203125	941.540771484375	-454.1290893554687	-401.1983032226562	879.7701416015625	-475.3878784179687	-400.8348693847656	808.1860961914062	-505.8021545410156	-372.6994934082031	688.2992553710938	-548.0732421875	-301.0301208496094	703.9580078125	-554.1295166015625	-304.1220092773438	648.7056884765625	-587.6227416992188	-269.7409973144531	1122.724487304688	-148.1968536376953	-288.9429931640625	1021.432800292969	-94.87899017333979	-305.4183654785156	870.8949584960938	-55.79512786865229	-271.1622009277344	722.3763427734375	-40.08392715454097	-256.4209594726562	680.4664306640625	-34.85594558715816	-188.1705932617188	704.3070068359375	-42.37873840332027	-176.1713256835938	643.5147094726562	-11.70043659210201	-353.9859313964844	793.4303588867188	-280.2947692871093	-227.8652801513672	758.7479248046875	-398.2282104492187	-210.9231719970703	756.2466430664062	-173.8428344726562	-203.1310577392578	585.3814086914062	-455.2396545410156	-201.3700714111328	462.215576171875	-446.3352355957031	-148.045654296875	499.3004760742188	-456.9048156738281	-222.3027038574219	273.9974670410156	-440.5059814453125	-332.2402648925781	235.5030975341797	-400.9830932617188	-201.0906982421875	179.6416778564453	-424.0791625976562	-185.2064208984375	70.76562500000003	-375.0403137207031	-230.9268341064453	541.4844360351562	-160.5574188232422	-277.8857421875	435.471435546875	-178.5811462402343	-226.8346099853516	440.9292602539062	-183.1325073242187	-294.7401428222656	228.5815887451172	-180.415771484375	-392.7178955078125	153.2333526611328	-193.7669525146484	-249.3766632080078	144.8193511962891	-205.4687042236328	-368.2050476074219	44.62190246582033	-267.5348815917969	-213.4596252441406	45.75140762329103	-237.1275634765625	-317.6333312988281	783.756591796875	-278.3253173828124	-312.7213745117188	782.4436645507812	-278.7108154296874	-318.0172119140625	783.8132934570312	-283.4095153808593	-304.4991455078125	833.0239868164062	-278.7676086425781	-319.2680969238281	126.3753509521485	-335.62060546875	-233.6956939697266	27.35413551330568	-205.9485473632812	-207.3986053466797	48.40946960449221	-398.8380126953125	-139.8194427490234	429.3493041992188	-450.4945373535156	-239.9526824951172	385.7553100585938	-196.3080444335937	-294.3668518066406	116.2560577392578	-382.0233764648438	-328.2535705566406	58.54023742675783	-223.4142150878906	-128.4666442871094	421.8164672851562	-400.0570678710938	-253.1305847167969	385.2170715332031	-247.40087890625	-271.2670593261719	121.745834350586	-350.5961303710938	-312.5826721191406	66.19365692138673	-258.8281860351562	-218.6564178466797	571.5747680664062	-459.2471008300781	-234.2432556152344	536.8833618164062	-149.6800231933593	-252.6030578613281	266.9593505859375	-454.1363525390625	-318.5530700683594	214.4832153320312	-169.3232116699219	-287.0477600097656	1.537719093966337e-14	-251.1285858154297	254.2699890136719	-0.2560999989509441	-231.3000030517578	950.1600341796875	1.404999971389795	-394.6300048828125	0	0	0	0	0	0	0	0	0	0	0	0	-269.3818969726562	697.4929809570312	-334.2001953124999	-262.3011779785156	695.8353881835938	-232.4795989990234	-127.2007369995117	422.1300048828125	-445.2724914550781	-243.3306732177734	389.7574768066406	-193.0512084960937	-121.7193450927734	423.0029907226562	-393.3229370117188	-250.2436065673828	389.1392211914062	-245.3596954345703	0.1782776415348053	0.9677110314369202	-0.01199848949909204	-287.0477600097656	1.537719093966337e-14	-251.1285858154297	-280.578369140625	254.7464904785157	-261.8777160644531	-256.7200012207031	0.07899999618532701	-396.4200134277344	254.2699890136719	-0.2560999989509441	-231.3000030517578	254.3151702880859	-0.5023738741874553	-231.3120574951172	254.2699890136719	-0.2560999989509441	-231.3000030517578	950.1600341796875	1.404999971389795	-394.6300048828125	950.1600341796875	1.404999971389795	-394.6300048828125	254.2699890136719	-0.2560999989509441	-231.3000030517578	14.92759704589844	-4.33615779876709	0.4972442686557767	14.92759704589844	4.33615779876709	-0.4972442686557767	24.93161964416504	-12.64741516113281	8.073586463928223	3.817118167877197	-9.87729549407959	0.5448932051658625	42.69194030761719	-3.74547815322876	9.454164505004883	16.81488609313965	10.19169902801514	-1.977415323257446	55.53414535522461	-14.88968467712402	-9.590440750122072	12.02652835845947	-36.13675308227539	-2.391761779785158	2.449376583099365	16.61519432067871	0.6220268607139597	7.129214286804199	11.59127426147461	1.144450306892396	-3.18055471858951e-15	-1.987846778527782e-15	-4.67143964366667e-15	0	1.242404236579866e-16	-2.99885302239278e-15	7.692044734954834	0	0	11.82470893859863	0	0	20.76810073852539	8.263862609863281	8.291826248168945	20.76810073852539	-8.263862609863281	-8.291826248168945	-12.80098247528076	-5.192039966583252	1.548072218894958	-12.80098247528076	5.192039966583252	-1.548072218894958	-20.7749137878418	-19.19742774963379	-12.68899536132813	45.91130828857422	-7.4743032943414e-13	-4.576690802635856e-29	11.48199844360352	104.9775314331055	8.303914070129402	-15.00512790679932	-5.920891284942626	-14.96119594573975	43.32194519042969	-3.482707286624198e-13	-1.987846778527804e-15	11.01086044311523	87.92057037353516	-4.488575935363764	2.049942493438721	9.743527412414551	0.1280861198902136	2.049942493438721	-9.743527412414551	-0.1280861198902136	-22.8172492980957	-1.516140580177307	-8.157045364379883	-22.8172492980957	1.516140580177307	8.157045364379883	0	-0.002802242990583181	-1.7158789544254e-19	0	-0.1088275089859962	-6.663763026944006e-18	0	-0.003482773434370756	-2.132583669278791e-19	0	-0.1459225416183472	-8.935178675817765e-18	0	0.07766176760196686	4.755411755493716e-18	0	-0.2101622819900513	-1.286872829703099e-17	0	0.03792762011289597	2.322396928526741e-18	0	0.03792762011289597	2.322396928526741e-18	0	0.02575050853192806	1.576763892502116e-18	0	0.02575050853192806	1.576763892502116e-18	0	0.006964333355426788	4.264424275959281e-19	0	0.005345059093087912	3.272904754801783e-19	0	-0.004239367321133614	-2.595863810118085e-19	0	0.005016929004341364	3.071983023358085e-19	0	0.00177835242357105	1.088926801641112e-19	0	0.0001632634084671736	9.997000529860551e-21	-280.578369140625	254.7464904785157	-261.8777160644531	254.3151702880859	-0.5023738145828105	-231.3120422363281	950.1600341796875	1.404999971389795	-394.6300048828125	0.1782776266336441	0.9677110314369202	-0.01199849043041462	-0.2824896574020386	-5.577478408813477	0.4422313868999478	-0.2380046993494034	0.3923388719558716	-0.0898424834012985	1.173466324806213	-6.324672222137451	0.07933939248323402	-0.1901317089796066	-0.0287316758185625	-0.06280623376369476	6.868762969970703	0.3344164192676544	0.3086157739162445	0	0	0	1.627253532409668	71.71771240234375	-2.932591676712032	0	0	0	0.1596335768699646	7.035508155822754	-0.287687242031097	0	0	0	0.1596335768699646	7.035508155822754	-0.287687242031097	0.8629982471466064	-3.690606832504272	0.2605535387992857	0.8629982471466064	-3.690606832504272	0.2605535387992857	0.2705433070659637	-0.6789559125900269	-0.19216787815094	0.2705433070659637	-0.6789559125900269	-0.19216787815094	0.06684280186891556	0.3441068828105927	0.1390244662761689	0.08401328325271606	0.2922589778900146	-0.06472837924957274	-0.07257411628961563	0.140576034784317	0.0671871453523636	-0.06704664975404739	0.1206153035163879	-0.03217292949557304	0.02168497629463673	0.0405464805662632	0.01649621687829495	0.01046884525567293	0.03196346759796143	-0.02266628481447696	-280.578369140625	254.7464904785157	-261.8777160644531	6.469394207000732	254.7464904785156	-10.7491521835327	254.3151702880859	-0.5023738145828105	-231.3120422363281	0.04518882185220718	-0.2462738305330276	-0.01204590406268837	950.1600341796875	1.404999971389795	-394.6300048828125	0.04518882185220718	-0.2462738305330276	-0.01204590406268837	-6.277351856231689	-12.9937515258789	-17.12911987304688	-11.3710412979126	-13.61859130859373	-318.574951171875	-8.897913932800293	13.1626205444336	-41.15057373046875	203.6873321533203	17.6333179473877	-65.02101135253906	-9.255287170410156	3.757729291915894	-2.777694463729858	187.0685272216797	16.8088550567627	1.528682708740235	nan	nan	nan	-1023.414733886719	24.08160781860353	-207.1621704101562	-156.0264129638672	-16.06816482543945	-12.0280876159668	-156.0264129638672	16.06816482543945	12.0280876159668	-0.1945127993822098	-13.22090625762939	-45.60017776489258	-0.1945127993822098	13.22090625762939	45.60017776489258	6.461872577667236	-7.759048461914061	-29.15259552001953	1.360418796539307	-3.20994472503662	-14.45703887939453	-7.772081851959229	-0.3503110408782952	-10.46316719055176	-8.57526969909668	-0.03097848035395117	-4.64570951461792	1.306989073753357	-1.219220388001345e-17	-0.6000627875328064	0.5408181548118591	1.002202309906249e-16	-1.056068897247314	-37012.484375	917.2922363281255	-7725.89013671875	11.00276756286621	-15.2636251449585	-13.61529159545899	11.00276756286621	-15.2636251449585	-13.61529159545899	
72	0.4733333333333334	-98.64583587646484	1232.054565429688	-348.0705566406249	-219.3439331054688	1273.56298828125	-377.0924072265624	-94.65254211425781	1244.16162109375	-234.9257202148437	-217.9598846435547	1303.289916992188	-212.6619720458984	-316.7295532226562	1145.86865234375	-273.5427551269531	-351.7988891601562	993.6298217773438	-269.2399597167968	-210.2262878417969	1096.182373046875	-292.7185058593749	-182.9459838867188	1043.902221679688	-297.5671691894531	-337.3655395507812	1068.370483398438	-184.3717193603515	-302.0637817382812	1116.73779296875	-413.4703674316406	-380.1885070800781	941.4020385742188	-452.8880310058593	-395.5807800292969	879.68408203125	-473.9121398925781	-396.2245483398438	808.0582885742188	-504.0083618164062	-369.7178344726562	687.5933837890625	-545.7883911132812	-298.0200500488281	702.7091064453125	-553.000244140625	-302.0142517089844	647.5811767578125	-586.5074462890625	-261.6749877929688	1122.29833984375	-147.7168579101562	-280.0990600585938	1020.956665039062	-94.07897949218744	-295.1782836914062	870.304443359375	-54.40143585205072	-259.1395263671875	722.1795043945312	-38.81814956665035	-243.8793792724609	680.4464111328125	-33.68315505981441	-176.0103302001953	705.0054321289062	-42.31030654907222	-162.8462524414062	644.4026489257812	-11.70485687255855	-346.8182678222656	792.9224243164062	-280.8556823730468	-220.0579223632812	758.213134765625	-397.9388427734374	-204.3326568603516	755.7327880859375	-173.4866638183593	-194.4246215820312	585.3431396484375	-455.2730102539062	-191.4837646484375	462.2854919433594	-446.0980834960938	-138.5273132324219	499.7991333007812	-456.6765747070312	-207.3072814941406	271.6953735351562	-439.7347717285156	-314.9741516113281	228.6950225830078	-398.3089599609375	-182.1665649414062	178.1534729003907	-424.5599365234375	-161.0145721435547	69.71802520751956	-376.5887756347656	-226.2515106201172	541.0098266601562	-160.3827819824218	-274.3040466308594	435.5098266601562	-178.3512573242187	-223.2238006591797	440.4136962890625	-182.9529571533203	-293.3663635253906	228.4286499023438	-180.2951202392578	-391.9662170410156	153.8940734863281	-193.9483642578125	-248.6573028564453	144.3092193603516	-205.345703125	-368.0755310058594	44.78816986083986	-267.6982421875	-213.3919219970703	45.70586013793947	-237.1207580566406	-310.4716796875	783.2442626953125	-278.5371398925781	-305.557861328125	781.9306640625	-278.8959045410156	-310.8280334472656	783.3004150390625	-283.6233520507812	-297.3292236328125	832.5099487304688	-278.9138793945312	-296.4954528808594	119.4878463745117	-334.4147033691406	-233.6257934570312	27.29270172119142	-205.8840637207031	-182.7233123779297	46.6922073364258	-400.1593322753906	-129.6134338378906	429.9414672851562	-450.1033935546875	-236.9139404296875	385.3793334960938	-196.1123962402343	-272.1911315917969	110.905029296875	-381.1484069824219	-328.2270202636719	58.72491836547853	-223.5554504394531	-118.2515487670898	422.6301879882812	-399.6354064941406	-250.1428680419922	384.9732360839844	-247.1932678222656	-248.6826782226562	117.0238800048828	-350.1431884765625	-312.4157409667969	66.28421020507814	-258.9271850585938	-209.8776702880859	571.4346313476562	-459.0327453613281	-229.2923126220703	536.2437744140625	-149.6542053222656	-237.5424041748047	263.6898193359375	-452.6815490722656	-317.2646484375	214.6680603027344	-169.29248046875	-284.5592346191406	1.571914593949029e-14	-256.713134765625	254.2699890136719	-0.2560999989509441	-231.3000030517578	950.1600341796875	1.404999971389795	-394.6300048828125	0	0	0	0	0	0	0	0	0	0	0	0	-261.9283447265625	696.9694213867188	-334.1413269042968	-255.3986053466797	695.3214111328125	-232.3837432861328	-117.958122253418	423.3452453613281	-445.1573791503906	-240.5658874511719	389.1767883300781	-192.6401214599609	-111.4630584716797	424.0293273925781	-393.3219604492188	-247.3713531494141	388.6747436523438	-244.9639434814453	0.1719368398189545	1.011643290519714	-0.01426502410322422	-284.5592346191406	1.571914593949029e-14	-256.713134765625	-275.5214538574219	270.5434265136719	-269.1981506347656	-256.7200012207031	0.07899999618532701	-396.4200134277344	254.2699890136719	-0.2560999989509441	-231.3000030517578	254.3151702880859	-0.5023738741874553	-231.3120574951172	254.2699890136719	-0.2560999989509441	-231.3000030517578	950.1600341796875	1.404999971389795	-394.6300048828125	950.1600341796875	1.404999971389795	-394.6300048828125	254.2699890136719	-0.2560999989509441	-231.3000030517578	14.93654251098633	-4.034949779510498	0.4228799045085905	14.93654251098633	4.034949779510498	-0.4228799045085905	22.6134033203125	-13.78397560119629	8.031463623046875	3.903859615325928	-9.937416076660156	0.5015572905540461	43.20787048339844	-4.038469314575196	9.503979682922363	16.08767127990723	10.54432392120361	-2.025697469711303	53.79489898681641	-16.23697090148926	-9.991908073425295	11.79319477081299	-36.29258346557617	-2.413695812225344	2.601743936538696	16.74007987976074	0.6662585735321055	7.556294441223145	11.63885498046875	1.219992399215699	6.361109437179021e-15	-1.987846778527783e-15	-1.789061910092591e-15	-2.385416091881692e-15	-3.230250935698309e-16	6.227550870242739e-16	7.854429721832275	0	0	12.2519702911377	0	0	20.45442771911621	8.271980285644531	8.482518196105957	20.45442771911621	-8.271980285644531	-8.482518196105957	-12.67062950134277	-5.559990406036377	1.59016728401184	-12.67062950134277	5.559990406036377	-1.59016728401184	-21.13724136352539	-19.44213104248047	-12.49908351898194	45.70163726806641	5.820415221839681e-13	1.590277359294791e-15	11.70549011230469	104.649284362793	7.823413848876959	-14.40352344512939	-5.487301349639892	-15.31251239776611	43.53715133666992	2.894304804504366e-13	3.975693557055583e-15	11.12924003601074	88.08249664306641	-4.388267517089838	2.181035041809082	9.801687240600586	0.1528131812810904	2.181035041809082	-9.801687240600586	-0.1528131812810904	-22.62804412841797	-1.48237133026123	-8.33814525604248	-22.62804412841797	1.48237133026123	8.33814525604248	0	-0.01540208142250776	-9.431054857140522e-19	0	-0.1240839213132858	-7.597948853098377e-18	0	-0.004874258767813444	-2.984622699109328e-19	0	-0.1482705175876617	-9.078950738582565e-18	0	0.0660509318113327	4.044453111172434e-18	0	-0.2381935566663742	-1.458514883744994e-17	0	0.02760722115635872	1.69045475112439e-18	0	0.02760722115635872	1.69045475112439e-18	0	0.06742335110902786	4.128489556172956e-18	0	0.06742335110902786	4.128489556172956e-18	0	0.006038046907633543	3.697237409267496e-19	0	0.003402110422030091	2.083191819342501e-19	0	-0.004467508755624294	-2.735560148869033e-19	0	0.004542360547930002	2.781393652797847e-19	0	0.00165404926519841	1.012813069128632e-19	0	8.464913844363764e-05	5.1832648222791e-21	-275.521484375	270.5434265136719	-269.1981201171875	254.3151702880859	-0.5023738145828105	-231.3120422363281	950.1600341796875	1.404999971389795	-394.6300048828125	0.1719368398189545	1.011643290519714	-0.01426502410322422	-0.2978330850601196	-6.009613990783691	0.5138189196586606	-0.2535911798477173	0.4234915971755981	-0.1028587073087692	1.266511201858521	-6.753993511199951	0.1186185404658313	-0.2025468349456787	-0.03242391720414161	-0.06133926659822464	7.307034492492676	0.312826007604599	0.360236257314682	0	0	0	2.287506103515625	73.39385986328125	-2.827919960021968	0	0	0	0.2244043350219727	7.19993782043457	-0.2774189412593837	0	0	0	0.2244043350219727	7.19993782043457	-0.2774189412593837	0.8072248101234436	-3.833879709243774	0.2789239585399625	0.8072248101234436	-3.833879709243774	0.2789239585399625	0.2366479784250259	-0.7631769776344299	-0.1995862126350403	0.2366479784250259	-0.7631769776344299	-0.1995862126350403	0.06092202663421631	0.3476194143295288	0.1411722600460053	0.0867065042257309	0.2984799444675446	-0.05990370735526083	-0.07478909939527512	0.1398448199033737	0.06683482974767686	-0.06693635135889053	0.1237219274044037	-0.03061337955296039	0.02081266418099403	0.04048452526330948	0.01645860821008683	0.01095847319811583	0.0328148640692234	-0.02247143536806106	-275.521484375	270.5434265136719	-269.1981201171875	9.037751197814941	270.5434265136719	-12.48500251770018	254.3151702880859	-0.5023738145828105	-231.3120422363281	0.04518882185220718	-0.2462738305330276	-0.01204590406268837	950.1600341796875	1.404999971389795	-394.6300048828125	0.04518882185220718	-0.2462738305330276	-0.01204590406268837	-0.05716293677687645	-13.18292713165283	-18.54408073425293	18.68005561828613	-11.9920377731323	-399.6824035644531	-12.29481029510498	11.61759281158447	-41.91570663452148	218.2113037109375	31.71056556701661	-125.9379119873047	-9.809809684753418	3.56554388999939	-2.59458327293396	212.6950073242188	24.88118362426758	-44.06767654418945	nan	nan	nan	-1046.129272460938	35.26784896850587	-202.4914245605469	-135.1432952880859	-19.5114688873291	-22.08340072631836	-135.1432952880859	19.5114688873291	22.08340072631836	49.03293228149414	-11.12054538726806	-55.23371505737305	49.03293228149414	11.12054538726806	55.23371505737305	5.235482215881348	-7.461498260498045	-29.10567855834961	2.426007747650146	-3.293794631958007	-13.56941890716553	-7.755841255187988	-0.3127898573875421	-10.12005043029785	-8.399654388427734	-0.04958336427807779	-4.729577541351318	1.178412675857544	-7.500349863845183e-16	-0.5378245115280151	0.6167386174201965	8.169808732194898e-17	-1.034539818763733	-37796.77734375	1364.795654296875	-7531.7177734375	11.00276756286621	-15.2636251449585	-13.61529159545899	11.00276756286621	-15.2636251449585	-13.61529159545899	
